<?xml version="1.0" encoding="utf-8"?>
<!-- Generator: Adobe Illustrator 18.0.0, SVG Export Plug-In . SVG Version: 6.00 Build 0)  -->
<!DOCTYPE svg PUBLIC "-//W3C//DTD SVG 1.1//EN" "http://www.w3.org/Graphics/SVG/1.1/DTD/svg11.dtd">
<svg version="1.1" id="Layer_1" xmlns="http://www.w3.org/2000/svg" xmlns:xlink="http://www.w3.org/1999/xlink" x="0px" y="0px"
	 viewBox="0 0 467.8 143.9" enable-background="new 0 0 467.8 143.9" xml:space="preserve">
<g>
	<path fill="#212221" d="M54.6,39.2l58.3,0l26.9-39L54.6,0.3c-16.8,0-30.3,5.2-40,15.4C4.8,26.1-0.5,41.5,0,57.9l0,86h3.1
		c20.7,0,37.3-16.6,37.3-37.4v-16h36.3l25.1-36.3H40.4l-0.1-0.5C40.3,45.6,46.7,39.2,54.6,39.2z"/>
	<path fill="#212221" d="M287.1,0.2l-38.2,70.3l0-35.6c0-25-19.8-34.7-36.9-34.7c-0.6,0-2.2,0-2.2,0l-38.2,70.3V39.2
		c0-29.8-10.1-39-16-39l-27.3,39.5v104.2h42.5L208.1,75l0.1,68.9h44.5l78-143.7H287.1z"/>
	<path fill="#212221" d="M427.7,0.2h-80.5l-40.1,73.9l40.2,69.8h80.3l40.2-69.8L427.7,0.2z M385.6,56.8h-14.4v40.6h-12.3V56.8h-15
		v-9.6h41.7V56.8z M414,97.4h-9.1l-18.5-50.1h12.3l7.7,22.1c0.6,1.6,1.1,3.3,1.7,5.1c0.5,1.8,1.1,4.2,1.6,6.4c0.5-1.9,1-4,1.5-5.8
		c0.5-1.8,1.1-3.7,1.8-5.7l7.7-22.1h11.4L414,97.4z"/>
	<path fill="#212221" d="M467.1,4.3c-0.8-1.3-1.8-2.4-3.1-3.1c-1.3-0.8-2.7-1.1-4.2-1.1c-1.5,0-2.9,0.4-4.2,1.2
		c-1.3,0.8-2.3,1.8-3.1,3.2c-0.8,1.3-1.1,2.8-1.1,4.3c0,1.5,0.4,2.9,1.1,4.2c0.7,1.3,1.8,2.4,3.1,3.2c1.3,0.8,2.7,1.2,4.3,1.2
		c1.6,0,3-0.4,4.3-1.2c1.3-0.8,2.3-1.8,3.1-3.2c0.7-1.3,1.1-2.7,1.1-4.2C468.2,7.1,467.9,5.6,467.1,4.3z M465.9,12.2
		c-0.6,1.1-1.5,2-2.6,2.6c-1.1,0.7-2.3,1-3.6,1c-1.3,0-2.4-0.3-3.5-1c-1.1-0.6-2-1.5-2.6-2.6c-0.6-1.1-1-2.3-1-3.6
		c0-1.3,0.3-2.5,1-3.6c0.6-1.1,1.5-2,2.6-2.6c1.1-0.6,2.3-1,3.5-1c1.3,0,2.4,0.3,3.5,1c1.1,0.6,2,1.5,2.6,2.6c0.6,1.1,1,2.3,1,3.6
		C466.8,9.9,466.5,11.1,465.9,12.2z"/>
	<path fill="#212221" d="M461.5,9.2c1.1-0.5,1.7-1.4,1.7-2.7c0-1-0.3-1.8-0.9-2.3c-0.6-0.5-1.6-0.8-2.9-0.8h-2.9v10.3h2.1v-4h1
		l2.2,4h2.4L461.5,9.2z M460.6,7.8c-0.3,0.3-0.7,0.4-1.3,0.4h-0.8v-3h0.8c0.6,0,1,0.1,1.3,0.3c0.3,0.2,0.4,0.6,0.4,1.2
		C461.1,7.1,460.9,7.5,460.6,7.8z"/>
</g>
</svg>
