<?xml version="1.0"?>
<svg width="413.736" height="120.562" xmlns="http://www.w3.org/2000/svg" xmlns:svg="http://www.w3.org/2000/svg">
 <g>
  <title>Layer 1</title>
  <g id="svg_1">
   <path id="svg_2" d="m65.358002,75.823997l21.375,-30.457996l-52.478001,0l0,-0.424c0,-6.717003 5.460999,-12.207001 12.189999,-12.207001l49.233002,0.095001l0.296997,0l22.852005,-32.610002l-72.373005,0.051c-14.294998,0 -25.735998,4.344 -34.005999,12.917c-8.369,8.66 -12.895,21.532001 -12.413,35.300999l0.303,72.065002l2.296,0.007996c17.636,0 31.99,-14.104996 31.99,-31.472l-0.035,-13.266998l30.769001,0.000999l0,0z" fill="#ffffff"/>
   <path id="svg_3" d="m247.703003,0.518l-33.39801,57.084001l-0.015991,-28.781002c-0.016006,-20.866999 -16.925003,-28.284999 -31.414001,-28.284999c-0.507996,0 -0.789001,0.008 -0.789001,0.008l-1.250992,0.062l-34.026001,57.992c-0.158005,-5.852001 -0.326004,-15.146999 -0.326004,-28.476999c0,-17.445001 -6.389008,-30.122 -15.180008,-30.122l-1.276993,0l-18.669998,26.438l0,93.976002l34.526993,0l33.756012,-58.902l0.071991,55.185997l-0.020004,3.717003l33.087021,0l1.526001,-2.463005l68.711975,-117.432996l-35.312988,0z" fill="#ffffff"/>
   <path id="svg_4" d="m364.878998,0.536l-68.285004,0l-34.147003,59.679l34.147003,59.679996l68.285004,0l34.153015,-59.679996l-34.153015,-59.679zm-35.554993,47.144l-12.630005,0l0,33.863998l-10.122986,0l0,-33.863998l-12.684021,0l0,-8.096001l35.437012,0l0,8.096001l0,0zm24.127991,34.129997l-8.34201,0l-15.326996,-42.225998l10.451996,0l6.582001,18.466991c0.480011,1.333 0.949005,2.766998 1.412018,4.281998c0.454987,1.537003 0.910004,3.232014 1.347992,5.068005c0.444,-1.57 0.877991,-3.107002 1.321991,-4.607002c0.429016,-1.482002 0.953003,-3.063992 1.572021,-4.743l6.572998,-18.466991l9.665985,0l-15.257996,42.225998z" fill="#ffffff"/>
   <g id="svg_5">
    <path id="svg_6" d="m396.572998,10.936c0,1.238 -0.450989,2.214 -1.34201,2.92c-0.886993,0.719 -2.132996,1.071 -3.721985,1.071c-1.459991,0 -2.77301,-0.265 -3.888,-0.822001l0,-2.707999c0.927002,0.424 1.707001,0.714 2.35199,0.872c0.641022,0.167 1.230011,0.257 1.768005,0.257c0.63501,0 1.11499,-0.124 1.459015,-0.373c0.340973,-0.236 0.513977,-0.59 0.513977,-1.084c0,-0.274 -0.070984,-0.511001 -0.222992,-0.715c-0.153992,-0.211 -0.368988,-0.415 -0.665985,-0.61c-0.287018,-0.195001 -0.884003,-0.494 -1.774017,-0.927c-0.842987,-0.398001 -1.473999,-0.776 -1.893005,-1.145c-0.419983,-0.354 -0.753998,-0.769 -1.000977,-1.255c-0.252014,-0.486 -0.380005,-1.051 -0.380005,-1.686c0,-1.23 0.410004,-2.173 1.234985,-2.879c0.819,-0.682 1.96402,-1.043 3.411011,-1.043c0.718994,0 1.399994,0.088 2.044006,0.258c0.649994,0.174 1.328979,0.407 2.03598,0.715l-0.940979,2.268c-0.733002,-0.299 -1.333008,-0.52 -1.817017,-0.636c-0.480988,-0.116 -0.947998,-0.174 -1.406982,-0.174c-0.553009,0 -0.980011,0.132 -1.27301,0.378c-0.291016,0.257 -0.445007,0.602 -0.445007,1.005c0,0.266 0.067017,0.485 0.186005,0.673c0.118988,0.195 0.312988,0.387 0.565002,0.564c0.255005,0.175 0.877991,0.494 1.850983,0.964c1.275024,0.606 2.166016,1.217 2.633026,1.845c0.47998,0.619 0.717987,1.366 0.717987,2.267z" fill="#ffffff"/>
    <path id="svg_7" d="m404.872009,14.733l-3.307007,-10.771l-0.083984,0c0.11499,2.196 0.175995,3.663 0.175995,4.394l0,6.376l-2.604004,0l0,-13.718l3.964996,0l3.252014,10.495l0.049988,0l3.451996,-10.495l3.964996,0l0,13.72l-2.71698,0l0,-6.489c0,-0.304 0,-0.665 0.014984,-1.068c0.011993,-0.39 0.052002,-1.457 0.127014,-3.189l-0.084015,0l-3.533997,10.746l-2.671997,0l0,-0.001z" fill="#ffffff"/>
   </g>
  </g>
 </g>
</svg>